<?xml version="1.0" encoding="iso-8859-1"?>
<!-- Generator: Adobe Illustrator 19.0.0, SVG Export Plug-In . SVG Version: 6.00 Build 0)  -->
<svg version="1.1" id="Layer_1" xmlns="http://www.w3.org/2000/svg" xmlns:xlink="http://www.w3.org/1999/xlink" x="0px" y="0px"
	 viewBox="0 0 512 512" style="enable-background:new 0 0 512 512;" xml:space="preserve">
<g transform="translate(1 1)">
	<g>
		<path style="fill:#E2E3E5;" d="M496.992,501.34c-2.898,0-4.83-0.966-6.762-2.898L339.528,341.943
			c-3.864-3.864-3.864-9.66,0-13.525s9.66-3.864,13.525,0l149.736,156.498c3.864,3.864,3.864,9.66,0,13.525
			C501.823,500.374,498.925,501.34,496.992,501.34z"/>
		<path style="fill:#E2E3E5;" d="M429.37,201.868c0,106.264-86.943,193.208-193.208,193.208S42.955,308.132,42.955,201.868
			S129.898,8.66,236.162,8.66S429.37,95.604,429.37,201.868"/>
	</g>
	<path style="fill:#CCCCCC;" d="M400.389,201.868c0,106.264-86.943,193.208-193.208,193.208S13.974,308.132,13.974,201.868
		S100.917,8.66,207.181,8.66S400.389,95.604,400.389,201.868"/>
	<path style="fill:#E2E3E5;" d="M361.747,201.868c0,106.264-78.249,193.208-173.887,193.208S13.974,308.132,13.974,201.868
		S92.223,8.66,187.86,8.66S361.747,95.604,361.747,201.868"/>
	<path style="fill:#FFFFFF;" d="M187.86,395.075c6.762,0,12.558,0,19.321-0.966c-86.943-10.626-154.566-92.74-154.566-192.242
		S120.238,20.253,207.181,9.626C200.419,8.66,194.623,8.66,187.86,8.66c-95.638,0-173.887,86.943-173.887,193.208
		S92.223,395.075,187.86,395.075"/>
	<g>
		<path style="fill:#B6B6B6;" d="M487.332,511c-2.898,0-4.83-0.966-6.762-2.898L329.868,351.604c-3.864-3.864-3.864-9.66,0-13.525
			s9.66-3.864,13.525,0l149.736,156.498c3.864,3.864,3.864,9.66,0,13.525C492.162,510.034,489.264,511,487.332,511z"/>
		<path style="fill:#B6B6B6;" d="M207.181,404.736c-112.06,0-202.868-90.808-202.868-202.868c0-49.268,18.355-97.57,51.2-134.279
			c3.864-3.864,9.66-4.83,13.525-0.966c3.864,3.864,4.83,9.66,0.966,13.525c-29.947,33.811-46.37,77.283-46.37,121.721
			c0,101.434,82.113,183.547,183.547,183.547s183.547-82.113,183.547-183.547S308.615,18.321,207.181,18.321
			c-25.117,0-50.234,4.83-73.419,15.457c-4.83,1.932-10.626,0-12.559-4.83c-1.932-4.83,0-10.626,4.83-12.558
			C152.117,4.796,179.166-1,207.181-1c112.06,0,202.868,90.808,202.868,202.868S319.242,404.736,207.181,404.736z"/>
		<path style="fill:#B6B6B6;" d="M100.917,47.302c0,5.796-3.864,9.66-9.66,9.66c-5.796,0-9.66-3.864-9.66-9.66s3.864-9.66,9.66-9.66
			S100.917,41.506,100.917,47.302"/>
	</g>
</g>
<g>
</g>
<g>
</g>
<g>
</g>
<g>
</g>
<g>
</g>
<g>
</g>
<g>
</g>
<g>
</g>
<g>
</g>
<g>
</g>
<g>
</g>
<g>
</g>
<g>
</g>
<g>
</g>
<g>
</g>
</svg>
